<svg width="172" height="55" viewBox="0 0 172 55" fill="none" xmlns="http://www.w3.org/2000/svg">
<g clip-path="url(#clip0_404_30961)">
<path d="M157.219 0.239258H16.0955C7.94616 0.239258 1.33984 6.84557 1.33984 14.9949V39.1117C1.33984 47.261 7.94616 53.8674 16.0955 53.8674H157.219C165.368 53.8674 171.974 47.261 171.974 39.1117V14.9949C171.974 6.84557 165.368 0.239258 157.219 0.239258Z" fill="black"/>
<path d="M62.8909 21.6157C65.0515 21.6157 66.2704 20.2722 66.2704 18.0562C66.2704 15.854 65.0515 14.5244 62.9878 14.5244H60.7025V21.6157H62.8909ZM61.5613 20.8539V15.2862H62.9325C64.5945 15.2862 65.4393 16.3387 65.4393 18.0562C65.4393 19.7875 64.5945 20.8539 62.8355 20.8539H61.5613ZM69.7606 21.7265C71.201 21.7265 72.1705 20.6324 72.1705 18.9842C72.1705 17.3221 71.201 16.228 69.7606 16.228C68.3201 16.228 67.3507 17.3221 67.3507 18.9842C67.3507 20.6324 68.3201 21.7265 69.7606 21.7265ZM69.7606 20.9924C68.6665 20.9924 68.1678 20.0506 68.1678 18.9842C68.1678 17.9177 68.6665 16.9621 69.7606 16.9621C70.8547 16.9621 71.3534 17.9177 71.3534 18.9842C71.3534 20.0506 70.8547 20.9924 69.7606 20.9924ZM74.442 21.6157H75.2453L76.4088 17.5299H76.4918L77.6552 21.6157H78.4585L80.079 16.2972H79.2204L78.0707 20.3553H78.0154L76.8935 16.2972H76.0209L74.8852 20.3692H74.8298L73.6803 16.2972H72.8215L74.442 21.6157ZM81.9765 18.4163C81.9765 17.4884 82.5512 16.9621 83.3338 16.9621C84.0921 16.9621 84.5526 17.4572 84.5526 18.2917V21.6157H85.3698V18.2363C85.3698 16.8789 84.6461 16.228 83.5693 16.228C82.766 16.228 82.2673 16.5881 82.018 17.1282H81.9488V16.2972H81.1594V21.6157H81.9765V18.4163ZM87.6802 14.5244H86.8631V21.6157H87.6802V14.5244ZM91.3375 21.7265C92.778 21.7265 93.7474 20.6324 93.7474 18.9842C93.7474 17.3221 92.778 16.228 91.3375 16.228C89.8971 16.228 88.9276 17.3221 88.9276 18.9842C88.9276 20.6324 89.8971 21.7265 91.3375 21.7265ZM91.3375 20.9924C90.2434 20.9924 89.7447 20.0506 89.7447 18.9842C89.7447 17.9177 90.2434 16.9621 91.3375 16.9621C92.4317 16.9621 92.9303 17.9177 92.9303 18.9842C92.9303 20.0506 92.4317 20.9924 91.3375 20.9924ZM96.5599 21.7403C97.4879 21.7403 97.9727 21.2418 98.1388 20.8955H98.1804V21.6157H98.9975V18.1116C98.9975 16.4219 97.7095 16.228 97.0309 16.228C96.2275 16.228 95.3134 16.505 94.8979 17.4745L95.6736 17.7514C95.8535 17.3637 96.2795 16.9481 97.0585 16.9481C97.8099 16.9481 98.1804 17.3464 98.1804 18.0285V18.0562C98.1804 18.4509 97.7787 18.4163 96.8093 18.5409C95.8224 18.6691 94.7456 18.8872 94.7456 20.1061C94.7456 21.1448 95.5489 21.7403 96.5599 21.7403ZM96.6846 21.0063C96.0336 21.0063 95.5627 20.7155 95.5627 20.1475C95.5627 19.5243 96.1305 19.3304 96.7677 19.2473C97.1139 19.2057 98.0419 19.1088 98.1804 18.9426V19.6905C98.1804 20.3553 97.6541 21.0063 96.6846 21.0063ZM102.497 21.7265C103.522 21.7265 103.869 21.0893 104.049 20.7985H104.146V21.6157H104.935V14.5244H104.118V17.142H104.049C103.869 16.8651 103.55 16.228 102.511 16.228C101.168 16.228 100.24 17.2945 100.24 18.9703C100.24 20.66 101.168 21.7265 102.497 21.7265ZM102.608 20.9924C101.583 20.9924 101.057 20.0921 101.057 18.9564C101.057 17.8346 101.569 16.9621 102.608 16.9621C103.605 16.9621 104.132 17.7654 104.132 18.9564C104.132 20.1615 103.592 20.9924 102.608 20.9924ZM111.449 21.7265C112.888 21.7265 113.858 20.6324 113.858 18.9842C113.858 17.3221 112.888 16.228 111.449 16.228C110.008 16.228 109.039 17.3221 109.039 18.9842C109.039 20.6324 110.008 21.7265 111.449 21.7265ZM111.449 20.9924C110.353 20.9924 109.855 20.0506 109.855 18.9842C109.855 17.9177 110.353 16.9621 111.449 16.9621C112.543 16.9621 113.041 17.9177 113.041 18.9842C113.041 20.0506 112.543 20.9924 111.449 20.9924ZM115.922 18.4163C115.922 17.4884 116.498 16.9621 117.28 16.9621C118.038 16.9621 118.499 17.4572 118.499 18.2917V21.6157H119.316V18.2363C119.316 16.8789 118.592 16.228 117.515 16.228C116.712 16.228 116.213 16.5881 115.964 17.1282H115.895V16.2972H115.105V21.6157H115.922V18.4163ZM125.865 16.2972H124.729V15.023H123.911V16.2972H123.108V16.9897H123.911V20.3138C123.911 21.2418 124.66 21.6849 125.352 21.6849C125.656 21.6849 125.851 21.6296 125.961 21.588L125.796 20.8539C125.725 20.8678 125.616 20.8955 125.435 20.8955C125.075 20.8955 124.729 20.7847 124.729 20.0921V16.9897H125.865V16.2972ZM128.026 18.4163C128.026 17.4884 128.617 16.9621 129.424 16.9621C130.193 16.9621 130.656 17.4468 130.656 18.2917V21.6157H131.474V18.2363C131.474 16.8686 130.746 16.228 129.66 16.228C128.821 16.228 128.344 16.5776 128.095 17.1282H128.026V14.5244H127.208V21.6157H128.026V18.4163ZM135.199 21.7265C136.279 21.7265 137.069 21.1864 137.318 20.383L136.529 20.1615C136.32 20.7155 135.839 20.9924 135.199 20.9924C134.239 20.9924 133.578 20.3726 133.54 19.2335H137.401V18.8872C137.401 16.9066 136.224 16.228 135.115 16.228C133.675 16.228 132.72 17.3637 132.72 18.998C132.72 20.6324 133.661 21.7265 135.199 21.7265ZM133.54 18.5271C133.595 17.6995 134.18 16.9621 135.115 16.9621C136.002 16.9621 136.569 17.6269 136.569 18.5271H133.54ZM62.9082 38.3665L63.7854 35.6714H68.0501L68.9272 38.3665H71.605L67.5308 26.5476H64.3105L60.2305 38.3665H62.9082ZM64.4201 33.7209L65.8744 29.2484H65.9668L67.421 33.7209H64.4201ZM72.9813 41.6904H75.4398V36.9467H75.5148C75.8552 37.6854 76.5997 38.5107 78.031 38.5107C80.0508 38.5107 81.6262 36.9122 81.6262 33.9459C81.6262 30.8989 79.9815 29.3868 78.0367 29.3868C76.5535 29.3868 75.8437 30.2698 75.5148 30.9912H75.4052V29.5023H72.9813V41.6904ZM75.3878 33.9343C75.3878 32.3532 76.0573 31.3432 77.2518 31.3432C78.4695 31.3432 79.1159 32.3993 79.1159 33.9343C79.1159 35.4809 78.458 36.5543 77.2518 36.5543C76.0688 36.5543 75.3878 35.5156 75.3878 33.9343ZM83.2651 41.6904H85.7235V36.9467H85.7986C86.139 37.6854 86.8835 38.5107 88.3148 38.5107C90.3346 38.5107 91.91 36.9122 91.91 33.9459C91.91 30.8989 90.2653 29.3868 88.3205 29.3868C86.8373 29.3868 86.1275 30.2698 85.7986 30.9912H85.689V29.5023H83.2651V41.6904ZM85.6716 33.9343C85.6716 32.3532 86.3411 31.3432 87.5356 31.3432C88.7533 31.3432 89.3997 32.3993 89.3997 33.9343C89.3997 35.4809 88.7418 36.5543 87.5356 36.5543C86.3526 36.5543 85.6716 35.5156 85.6716 33.9343ZM103.768 29.9466H106.163C106.128 27.8403 104.397 26.386 101.765 26.386C99.1741 26.386 97.2756 27.8172 97.2871 29.964C97.2813 31.7068 98.5105 32.7051 100.507 33.1841L101.794 33.5073C103.081 33.819 103.797 34.1883 103.802 34.9847C103.797 35.8503 102.977 36.439 101.708 36.439C100.409 36.439 99.4743 35.8388 99.3935 34.6558H96.9754C97.039 37.2122 98.8683 38.5338 101.736 38.5338C104.622 38.5338 106.319 37.1545 106.324 34.9905C106.319 33.0226 104.835 31.9781 102.781 31.5164L101.719 31.2624C100.692 31.0258 99.832 30.6449 99.8494 29.7966C99.8494 29.0348 100.525 28.4751 101.748 28.4751C102.943 28.4751 103.675 29.0176 103.768 29.9466ZM112.673 29.5023H111.006V27.3786H108.548V29.5023H107.335V31.349H108.548V35.9658C108.536 37.7028 109.719 38.5627 111.502 38.4876C112.137 38.4646 112.588 38.3376 112.836 38.2568L112.448 36.4274C112.328 36.4505 112.068 36.5082 111.837 36.5082C111.347 36.5082 111.006 36.3235 111.006 35.6426V31.349H112.673V29.5023ZM118.185 38.5395C120.874 38.5395 122.548 36.6986 122.548 33.969C122.548 31.2221 120.874 29.3868 118.185 29.3868C115.496 29.3868 113.822 31.2221 113.822 33.969C113.822 36.6986 115.496 38.5395 118.185 38.5395ZM118.197 36.6352C116.955 36.6352 116.321 35.4983 116.321 33.9517C116.321 32.4051 116.955 31.2624 118.197 31.2624C119.415 31.2624 120.049 32.4051 120.049 33.9517C120.049 35.4983 119.415 36.6352 118.197 36.6352ZM124.147 38.3665H126.605V33.3515C126.605 32.2608 127.402 31.5106 128.486 31.5106C128.826 31.5106 129.294 31.5683 129.525 31.6434V29.4619C129.306 29.41 129 29.3753 128.752 29.3753C127.759 29.3753 126.945 29.9525 126.623 31.0489H126.529V29.5023H124.147V38.3665ZM134.423 38.5395C136.615 38.5395 138.094 37.472 138.439 35.8273L136.165 35.6771C135.917 36.3524 135.283 36.7044 134.463 36.7044C133.234 36.7044 132.455 35.8907 132.455 34.5692V34.5634H138.492V33.8882C138.492 30.8757 136.668 29.3868 134.325 29.3868C131.717 29.3868 130.025 31.2393 130.025 33.9747C130.025 36.7852 131.693 38.5395 134.423 38.5395ZM132.455 33.0398C132.507 32.03 133.275 31.2221 134.366 31.2221C135.432 31.2221 136.172 31.9838 136.178 33.0398H132.455Z" fill="white"/>
<path d="M34.5744 15.3929C35.0865 14.8027 35.4768 14.1174 35.7231 13.376C35.9695 12.6347 36.0669 11.8519 36.01 11.0728C34.4382 11.1996 32.9791 11.9389 31.9473 13.1312C31.453 13.7027 31.0786 14.3675 30.846 15.0863C30.6134 15.805 30.5274 16.5632 30.593 17.3159C31.3597 17.3222 32.1176 17.1521 32.808 16.8187C33.4984 16.4852 34.1028 15.9974 34.5744 15.3929ZM37.9872 25.4684C37.9963 24.4307 38.2697 23.4124 38.7814 22.5096C39.2932 21.6069 40.0266 20.8494 40.9124 20.3087C40.3533 19.5033 39.6143 18.8391 38.7541 18.3691C37.8937 17.8989 36.9356 17.6357 35.9559 17.6002C33.8432 17.3836 31.8931 18.8326 30.7691 18.8326C29.645 18.8326 28.0606 17.6273 26.3001 17.6544C25.1491 17.6923 24.0277 18.0279 23.045 18.6284C22.0625 19.2289 21.2523 20.0738 20.6935 21.0807C18.31 25.2246 20.0841 31.3865 22.4675 34.7315C23.5509 36.3701 24.9052 38.2254 26.6928 38.1576C28.4804 38.09 29.0627 37.0472 31.1347 37.0472C33.2067 37.0472 33.8432 38.1576 35.6037 38.117C37.3643 38.0764 38.6101 36.4378 39.7477 34.7991C40.5535 33.6095 41.183 32.3095 41.6166 30.9395C40.5433 30.4818 39.6276 29.7198 38.9826 28.7475C38.3376 27.7751 37.9916 26.6352 37.9872 25.4684Z" fill="white"/>
</g>
<defs>
<clipPath id="clip0_404_30961">
<rect width="171.695" height="54.4399" fill="white" transform="translate(0.304688 0.239258)"/>
</clipPath>
</defs>
</svg>
