<?xml version="1.0" encoding="UTF-8"?>
<svg id="Layer_2" data-name="Layer 2" xmlns="http://www.w3.org/2000/svg" viewBox="0 0 1652.06 524.92">
  <defs>
    <style>
      .cls-1 {
        fill: #fff;
        stroke-width: 0px;
      }
    </style>
  </defs>
  <g id="Layer_1-2" data-name="Layer 1">
    <g>
      <g>
        <path class="cls-1" d="M456.03,439.92c8.64-41.2,5.91-80.14-14.33-116.67-19.98-36.11-49.35-61.93-88.54-77.4,2-2.47,3.26-4.27,4.76-5.86,49.44-52.34,33.64-135.31-32.31-164.97-13.43-6.04-29.03-9.52-43.74-9.92-44.75-1.28-89.59-.49-134.39-.45-13.29.02-20.07,6.71-20.07,19.83-.04,59.23.16,118.45-.2,177.68-.04,8.8,2.87,11.29,11.36,11.2,51.71-.52,103.4-.92,155.11-.79,42.84.11,77.76,17.22,104.44,50.86,44.57,56.2,29.66,143.96-32.54,179.84-17.4,10.04-38.82,14.75-59.03,18.08-120.02,19.6-234.4-42.57-284.07-153.23C-49.35,208.03,58.99,19.48,233.13,1.54c142.23-14.66,265.9,76.75,289.93,216.8,13.9,80.99-7.05,153.9-60.74,216.84-1.06,1.26-2.2,2.45-3.41,3.57-.43.38-1.15.49-2.87,1.17Z"/>
        <path class="cls-1" d="M165.16,168.38c0-19.06.2-38.15-.11-57.19-.11-6.65,1.8-9.36,8.89-9.3,36.53.29,73.07-.29,109.6.31,35.3.58,63.46,29.53,65.36,62.69,2.2,38.28-30.47,69.36-64.11,70.24-37.16.99-74.37.13-111.55.38-6.83.04-8.24-2.9-8.17-8.91.25-19.45.09-38.85.09-58.22Z"/>
      </g>
      <g>
        <path class="cls-1" d="M686.75,348.45h-105.68v-174.59h100.38c11.56,0,21.14,1.61,28.77,4.82,7.62,3.22,13.36,7.95,17.21,14.2,3.85,6.25,5.78,13.98,5.78,23.19,0,11.12-2.97,20.28-8.91,27.49-5.94,7.21-16.05,11.25-30.33,12.12v2.61c15.72.87,27.4,5.04,35.03,12.51,7.62,7.47,11.44,17.2,11.44,29.19,0,9.73-1.89,18.24-5.66,25.54-3.77,7.3-9.59,12.94-17.45,16.94-7.87,4-18.05,5.99-30.57,5.99ZM622.72,214.77v26.32h54.16c5.3,0,8.99-.99,11.07-2.99,2.08-2,3.13-5.34,3.13-10.03s-1.17-8.08-3.49-10.16c-2.33-2.08-6.22-3.13-11.68-3.13h-53.2ZM622.72,278.62v28.92h58.74c6.1,0,10.35-1.04,12.76-3.13,2.41-2.09,3.61-5.9,3.61-11.47s-1.17-9.34-3.49-11.33c-2.33-2-6.62-3-12.88-3h-58.74Z"/>
        <path class="cls-1" d="M773.72,210.8h-5.18c-10.2,0-18.47-8.27-18.47-18.47h0c0-10.2,8.27-18.47,18.47-18.47h5.18c10.2,0,18.47,8.27,18.47,18.47h0c0,10.2-8.27,18.47-18.47,18.47ZM792.19,348.45h-42.13v-131.07h42.13v131.07Z"/>
        <path class="cls-1" d="M895.7,254.9h-96.53v-37.52h96.53v37.52ZM895.7,348.45h-31.05c-14.77,0-26.36-3.95-34.79-11.86-8.43-7.9-12.64-20.28-12.64-37.14v-116.85l42.13-8.75v119.35c0,5.73,1.08,9.56,3.25,11.46,2.16,1.91,5.97,2.87,11.44,2.87h21.66v40.91Z"/>
        <path class="cls-1" d="M948.18,348.45h-42.13v-131.07h39.48v40.39l2.65,1.3v89.38ZM1039.66,348.45h-42.13v-66.97c0-9.73-1.69-16.5-5.06-20.33-3.37-3.82-10.03-5.73-19.98-5.73s-16.29,1.95-19.5,5.86c-3.21,3.91-4.82,10.55-4.82,19.93h-4.57l-3.37-23.97h7.46c.96-7.3,3.01-14.16,6.14-20.59,3.13-6.43,7.78-11.68,13.96-15.77,6.17-4.08,14.32-6.12,24.43-6.12s19.18,2.31,25.76,6.91c6.58,4.61,11.47,10.73,14.68,18.37,3.21,7.65,4.81,16.07,4.81,25.28h2.17v83.13ZM1131.14,348.45h-41.89v-66.97c0-9.73-1.73-16.5-5.18-20.33-3.45-3.82-10.07-5.73-19.86-5.73s-16.53,1.95-19.74,5.86c-3.21,3.91-4.82,10.55-4.82,19.93h-4.57l-3.37-23.97h7.7c.96-7.3,3.05-14.16,6.26-20.59,3.21-6.43,8.02-11.68,14.44-15.77,6.42-4.08,14.84-6.12,25.28-6.12s19.02,2.22,25.76,6.65c6.74,4.43,11.76,10.42,15.05,17.98,3.29,7.56,4.94,16.2,4.94,25.93v83.13Z"/>
        <path class="cls-1" d="M1183.61,351.06c-13.32,0-23.71-3.17-31.17-9.51-7.46-6.34-11.19-15.07-11.19-26.19,0-6.25,1.4-11.81,4.21-16.68,2.81-4.86,7.1-8.77,12.88-11.72,5.78-2.95,13.16-4.95,22.14-6l52.48-5.47v25.28l-41.41,5.21c-2.73.18-4.73.83-6.02,1.96-1.29,1.13-1.93,2.65-1.93,4.56,0,2.61,1.04,4.39,3.13,5.34,2.08.95,5.21,1.43,9.39,1.43,8.18,0,14.8-.61,19.86-1.82,5.06-1.21,8.75-3.34,11.07-6.39,2.32-3.04,3.49-7.34,3.49-12.9l3.37-.78v22.67h-3.37c-2.41,9.56-7.5,17.12-15.29,22.67-7.79,5.56-18.34,8.34-31.66,8.34ZM1272.2,348.45h-39.24v-29.97h-2.41v-46.38c0-7.3-1.69-12.03-5.06-14.2-3.37-2.17-9.39-3.26-18.05-3.26-8.03,0-13.64,1.13-16.85,3.39-3.21,2.26-4.81,6.51-4.81,12.77v1.05h-42.13v-.52c0-11.46,2.77-21.41,8.3-29.84,5.54-8.42,13.32-14.98,23.35-19.67,10.03-4.69,21.79-7.04,35.27-7.04s25.47,2.39,34.54,7.17c9.06,4.78,15.85,11.47,20.34,20.07,4.49,8.6,6.74,18.89,6.74,30.88v75.57Z"/>
        <path class="cls-1" d="M1328.05,348.45h-42.13v-131.07h39.48v40.39l2.65,1.3v89.38ZM1419.52,348.45h-42.13v-66.97c0-9.73-1.69-16.5-5.06-20.33-3.37-3.82-10.03-5.73-19.98-5.73s-16.29,1.95-19.5,5.86c-3.21,3.91-4.82,10.55-4.82,19.93h-4.57l-3.37-23.97h7.46c.96-7.3,3.01-14.16,6.14-20.59,3.13-6.43,7.78-11.68,13.96-15.77,6.17-4.08,14.32-6.12,24.43-6.12s19.18,2.31,25.76,6.91c6.58,4.61,11.47,10.73,14.68,18.37,3.21,7.65,4.81,16.07,4.81,25.28h2.17v83.13ZM1511,348.45h-41.89v-66.97c0-9.73-1.73-16.5-5.18-20.33-3.45-3.82-10.07-5.73-19.86-5.73s-16.53,1.95-19.74,5.86c-3.21,3.91-4.82,10.55-4.82,19.93h-4.57l-3.37-23.97h7.7c.96-7.3,3.05-14.16,6.26-20.59,3.21-6.43,8.02-11.68,14.44-15.77,6.42-4.08,14.84-6.12,25.28-6.12s19.02,2.22,25.76,6.65c6.74,4.43,11.76,10.42,15.05,17.98,3.29,7.56,4.94,16.2,4.94,25.93v83.13Z"/>
        <path class="cls-1" d="M1563.47,351.06c-13.32,0-23.71-3.17-31.17-9.51-7.46-6.34-11.19-15.07-11.19-26.19,0-6.25,1.4-11.81,4.21-16.68,2.81-4.86,7.1-8.77,12.88-11.72,5.78-2.95,13.16-4.95,22.14-6l52.48-5.47v25.28l-41.41,5.21c-2.73.18-4.73.83-6.02,1.96-1.29,1.13-1.93,2.65-1.93,4.56,0,2.61,1.04,4.39,3.13,5.34,2.08.95,5.21,1.43,9.39,1.43,8.18,0,14.8-.61,19.86-1.82,5.06-1.21,8.75-3.34,11.07-6.39,2.32-3.04,3.49-7.34,3.49-12.9l3.37-.78v22.67h-3.37c-2.41,9.56-7.5,17.12-15.29,22.67-7.79,5.56-18.34,8.34-31.66,8.34ZM1652.06,348.45h-39.24v-29.97h-2.41v-46.38c0-7.3-1.69-12.03-5.06-14.2-3.37-2.17-9.39-3.26-18.05-3.26-8.03,0-13.64,1.13-16.85,3.39-3.21,2.26-4.81,6.51-4.81,12.77v1.05h-42.13v-.52c0-11.46,2.77-21.41,8.3-29.84,5.54-8.42,13.32-14.98,23.35-19.67,10.03-4.69,21.79-7.04,35.27-7.04s25.47,2.39,34.54,7.17c9.06,4.78,15.85,11.47,20.34,20.07,4.49,8.6,6.74,18.89,6.74,30.88v75.57Z"/>
      </g>
    </g>
  </g>
</svg>