<svg width="171" height="55" viewBox="0 0 171 55" fill="none" xmlns="http://www.w3.org/2000/svg">
<g clip-path="url(#clip0_404_30953)">
<path d="M155.879 0.239258H14.7556C6.60631 0.239258 0 6.84557 0 14.9949V39.1117C0 47.261 6.60631 53.8674 14.7556 53.8674H155.879C164.028 53.8674 170.634 47.261 170.634 39.1117V14.9949C170.634 6.84557 164.028 0.239258 155.879 0.239258Z" fill="black"/>
<path d="M59.3337 16.7404H60.22C59.9569 15.3692 58.8073 14.4274 57.3115 14.4274C55.4937 14.4274 54.209 15.8262 54.209 18.07C54.209 20.3137 55.4833 21.7126 57.3669 21.7126C59.0566 21.7126 60.2615 20.5873 60.2615 18.8317V18.07H57.5608V18.8317H59.4306C59.4063 20.106 58.5684 20.9093 57.3669 20.9093C56.0511 20.9093 55.04 19.912 55.04 18.07C55.04 16.2279 56.0511 15.2307 57.3115 15.2307C58.3364 15.2307 59.0324 15.8089 59.3337 16.7404ZM63.8514 21.7264C64.9318 21.7264 65.7211 21.1863 65.9705 20.3829L65.181 20.1614C64.9732 20.7154 64.4919 20.9923 63.8514 20.9923C62.8923 20.9923 62.2309 20.3726 62.1928 19.2334H66.0535V18.8872C66.0535 16.9065 64.8763 16.2279 63.7683 16.2279C62.3279 16.2279 61.3722 17.3636 61.3722 18.998C61.3722 20.6323 62.314 21.7264 63.8514 21.7264ZM62.1928 18.5271C62.2482 17.6995 62.8334 16.962 63.7683 16.962C64.6547 16.962 65.2226 17.6268 65.2226 18.5271H62.1928ZM69.6096 16.2971H68.4739V15.0229H67.6568V16.2971H66.8534V16.9897H67.6568V20.3137C67.6568 21.2417 68.4047 21.6849 69.0971 21.6849C69.4019 21.6849 69.5958 21.6295 69.7066 21.5879L69.5404 20.8538C69.4711 20.8678 69.3603 20.8954 69.1803 20.8954C68.8201 20.8954 68.4739 20.7846 68.4739 20.0921V16.9897H69.6096V16.2971ZM73.5812 21.6157H74.3983V16.2971H73.5812V21.6157ZM73.9967 15.4108C74.3152 15.4108 74.5784 15.1614 74.5784 14.8568C74.5784 14.552 74.3152 14.3027 73.9967 14.3027C73.6782 14.3027 73.415 14.552 73.415 14.8568C73.415 15.1614 73.6782 15.4108 73.9967 15.4108ZM78.208 16.2971H77.0723V15.0229H76.2552V16.2971H75.4518V16.9897H76.2552V20.3137C76.2552 21.2417 77.0031 21.6849 77.6956 21.6849C78.0003 21.6849 78.1942 21.6295 78.305 21.5879L78.1388 20.8538C78.0696 20.8678 77.9587 20.8954 77.7786 20.8954C77.4186 20.8954 77.0723 20.7846 77.0723 20.0921V16.9897H78.208V16.2971ZM84.3402 21.7264C85.7807 21.7264 86.7501 20.6323 86.7501 18.9841C86.7501 17.3221 85.7807 16.2279 84.3402 16.2279C82.8997 16.2279 81.9303 17.3221 81.9303 18.9841C81.9303 20.6323 82.8997 21.7264 84.3402 21.7264ZM84.3402 20.9923C83.2461 20.9923 82.7474 20.0505 82.7474 18.9841C82.7474 17.9176 83.2461 16.962 84.3402 16.962C85.4343 16.962 85.933 17.9176 85.933 18.9841C85.933 20.0505 85.4343 20.9923 84.3402 20.9923ZM88.8147 18.4163C88.8147 17.4883 89.3895 16.962 90.172 16.962C90.9304 16.962 91.3908 17.4571 91.3908 18.2916V21.6157H92.208V18.2362C92.208 16.8789 91.4843 16.2279 90.4075 16.2279C89.6041 16.2279 89.1056 16.5881 88.8562 17.1282H88.787V16.2971H87.9975V21.6157H88.8147V18.4163ZM62.4915 30.3678H65.0307C64.7075 28.0307 62.6473 26.386 59.9753 26.386C56.8533 26.386 54.4468 28.6367 54.4468 32.4685C54.4468 36.2081 56.6974 38.528 60.0272 38.528C63.0109 38.528 65.1403 36.6409 65.1403 33.5304V32.0414H60.1946V33.9228H62.7339C62.6992 35.3886 61.7009 36.3177 60.0389 36.3177C58.1633 36.3177 56.9802 34.9153 56.9802 32.4455C56.9802 29.987 58.2095 28.5962 60.0157 28.5962C61.3027 28.5962 62.1741 29.2599 62.4915 30.3678ZM70.9762 38.5395C73.6655 38.5395 75.339 36.6986 75.339 33.9689C75.339 31.222 73.6655 29.3868 70.9762 29.3868C68.2869 29.3868 66.6133 31.222 66.6133 33.9689C66.6133 36.6986 68.2869 38.5395 70.9762 38.5395ZM70.9878 36.6351C69.747 36.6351 69.1122 35.4983 69.1122 33.9517C69.1122 32.405 69.747 31.2623 70.9878 31.2623C72.2053 31.2623 72.8402 32.405 72.8402 33.9517C72.8402 35.4983 72.2053 36.6351 70.9878 36.6351ZM80.9425 38.5395C83.6319 38.5395 85.3054 36.6986 85.3054 33.9689C85.3054 31.222 83.6319 29.3868 80.9425 29.3868C78.2533 29.3868 76.5798 31.222 76.5798 33.9689C76.5798 36.6986 78.2533 38.5395 80.9425 38.5395ZM80.9541 36.6351C79.7133 36.6351 79.0786 35.4983 79.0786 33.9517C79.0786 32.405 79.7133 31.2623 80.9541 31.2623C82.1718 31.2623 82.8066 32.405 82.8066 33.9517C82.8066 35.4983 82.1718 36.6351 80.9541 36.6351ZM90.8974 41.8751C93.4308 41.8751 95.2314 40.7209 95.2314 38.453V29.5022H92.7903V30.9912H92.698C92.369 30.2697 91.6476 29.3868 90.1645 29.3868C88.2197 29.3868 86.575 30.8988 86.575 33.917C86.575 36.866 88.1735 38.2394 90.1703 38.2394C91.5842 38.2394 92.3748 37.5296 92.698 36.7967H92.8018V38.4184C92.8018 39.636 92.0227 40.1092 90.9552 40.1092C89.8703 40.1092 89.322 39.636 89.12 39.0993L86.8462 39.4052C87.1405 40.8018 88.5083 41.8751 90.8974 41.8751ZM90.9494 36.3928C89.7433 36.3928 89.0854 35.4347 89.0854 33.9055C89.0854 32.3993 89.7317 31.3432 90.9494 31.3432C92.144 31.3432 92.8134 32.3531 92.8134 33.9055C92.8134 35.4694 92.1324 36.3928 90.9494 36.3928ZM99.6462 26.5475H97.1877V38.3664H99.6462V26.5475ZM105.656 38.5395C107.848 38.5395 109.325 37.4719 109.672 35.8272L107.398 35.6771C107.149 36.3524 106.515 36.7043 105.695 36.7043C104.466 36.7043 103.687 35.8907 103.687 34.5691V34.5634H109.724V33.8881C109.724 30.8757 107.9 29.3868 105.557 29.3868C102.949 29.3868 101.258 31.2393 101.258 33.9747C101.258 36.7852 102.925 38.5395 105.656 38.5395ZM103.687 33.0398C103.739 32.0299 104.507 31.222 105.598 31.222C106.665 31.222 107.404 31.9838 107.409 33.0398H103.687ZM115.135 38.3664H117.634V34.5345H119.735C122.453 34.5345 124.034 32.9129 124.034 30.5525C124.034 28.2037 122.482 26.5475 119.798 26.5475H115.135V38.3664ZM117.634 32.5319V28.5905H119.319C120.762 28.5905 121.46 29.3753 121.46 30.5525C121.46 31.724 120.762 32.5319 119.33 32.5319H117.634ZM128.069 26.5475H125.611V38.3664H128.069V26.5475ZM132.567 38.5337C133.876 38.5337 134.724 37.9624 135.158 37.1372H135.227V38.3664H137.558V32.3877C137.558 30.2755 135.769 29.3868 133.796 29.3868C131.672 29.3868 130.275 30.4025 129.935 32.0184L132.209 32.203C132.376 31.6144 132.902 31.1816 133.784 31.1816C134.621 31.1816 135.1 31.6029 135.1 32.33V32.3646C135.1 32.9359 134.494 33.011 132.953 33.161C131.198 33.3226 129.624 33.9112 129.624 35.8907C129.624 37.645 130.876 38.5337 132.567 38.5337ZM133.27 36.8371C132.514 36.8371 131.972 36.4851 131.972 35.8098C131.972 35.1174 132.544 34.7768 133.409 34.6557C133.945 34.5807 134.823 34.4537 135.117 34.2575V35.1981C135.117 36.1273 134.35 36.8371 133.27 36.8371ZM140.666 41.6904C142.496 41.6904 143.465 40.7556 143.967 39.3244L147.412 29.5138L144.809 29.5022L142.957 36.0119H142.865L141.03 29.5022H138.444L141.624 38.6203L141.48 38.9954C141.157 39.8265 140.539 39.8669 139.673 39.6014L139.119 41.4365C139.471 41.5865 140.043 41.6904 140.666 41.6904Z" fill="white"/>
<path d="M20.2996 14.7106C19.2823 14.0759 18.088 14.0907 17.0771 14.7197L28.9234 27.0558L32.903 22.5635L20.2996 14.7106Z" fill="white"/>
<path d="M15.8935 15.9805C15.6042 16.5143 15.4385 17.1251 15.4385 17.7727V40.0527C15.4385 40.6802 15.5895 41.2782 15.8626 41.8009L27.7755 28.3532L15.8935 15.9805Z" fill="white"/>
<path d="M38.1817 25.8498L34.3858 23.4854L30.1201 28.2987L35.3477 33.7412L38.1834 31.9747C39.2039 31.3364 39.8149 30.1917 39.8149 28.9113C39.8132 27.6309 39.2039 26.4864 38.1817 25.8498Z" fill="white"/>
<path d="M28.9708 29.5981L17.0254 43.0826C17.5437 43.4165 18.1125 43.5925 18.6846 43.5925C19.237 43.5925 19.7927 43.4348 20.3014 43.1174L33.849 34.6775L28.9708 29.5981Z" fill="white"/>
</g>
<defs>
<clipPath id="clip0_404_30953">
<rect width="170.648" height="54.4399" fill="white" transform="translate(0 0.239258)"/>
</clipPath>
</defs>
</svg>
