<svg width="25" height="25" viewBox="0 0 25 25" fill="none" xmlns="http://www.w3.org/2000/svg">
<path d="M16.69 2.0459H8.31C4.67 2.0459 2.5 4.2159 2.5 7.8559V16.2259C2.5 19.8759 4.67 22.0459 8.31 22.0459H16.68C20.32 22.0459 22.49 19.8759 22.49 16.2359V7.8559C22.5 4.2159 20.33 2.0459 16.69 2.0459ZM12.5 15.9259C10.36 15.9259 8.62 14.1859 8.62 12.0459C8.62 9.9059 10.36 8.1659 12.5 8.1659C14.64 8.1659 16.38 9.9059 16.38 12.0459C16.38 14.1859 14.64 15.9259 12.5 15.9259ZM18.42 6.9259C18.37 7.0459 18.3 7.1559 18.21 7.2559C18.11 7.3459 18 7.4159 17.88 7.4659C17.76 7.5159 17.63 7.5459 17.5 7.5459C17.23 7.5459 16.98 7.4459 16.79 7.2559C16.7 7.1559 16.63 7.0459 16.58 6.9259C16.53 6.8059 16.5 6.6759 16.5 6.5459C16.5 6.4159 16.53 6.2859 16.58 6.1659C16.63 6.0359 16.7 5.9359 16.79 5.8359C17.02 5.6059 17.37 5.4959 17.69 5.5659C17.76 5.5759 17.82 5.5959 17.88 5.6259C17.94 5.6459 18 5.6759 18.06 5.7159C18.11 5.7459 18.16 5.7959 18.21 5.8359C18.3 5.9359 18.37 6.0359 18.42 6.1659C18.47 6.2859 18.5 6.4159 18.5 6.5459C18.5 6.6759 18.47 6.8059 18.42 6.9259Z" fill="#F2F4F3"/>
</svg>
