<svg width="16" height="16" viewBox="0 0 16 16" fill="none" xmlns="http://www.w3.org/2000/svg">
<path d="M7.35377 1.9027L4.1603 3.10585C3.42433 3.38104 2.82275 4.2514 2.82275 5.03217V9.78718C2.82275 10.5423 3.32193 11.5343 3.92991 11.9887L6.6818 14.043C7.58416 14.7214 9.0689 14.7214 9.97126 14.043L12.7232 11.9887C13.3311 11.5343 13.8303 10.5423 13.8303 9.78718V5.03217C13.8303 4.245 13.2287 3.37464 12.4928 3.09945L9.29929 1.9027C8.75531 1.70431 7.88495 1.70431 7.35377 1.9027Z" stroke="#F2F4F3" stroke-width="0.959961" stroke-linecap="round" stroke-linejoin="round"/>
<path d="M8.31999 8.47542C9.02688 8.47542 9.59993 7.90237 9.59993 7.19548C9.59993 6.48858 9.02688 5.91553 8.31999 5.91553C7.61309 5.91553 7.04004 6.48858 7.04004 7.19548C7.04004 7.90237 7.61309 8.47542 8.31999 8.47542Z" stroke="#F2F4F3" stroke-width="0.959961" stroke-miterlimit="10" stroke-linecap="round" stroke-linejoin="round"/>
<path d="M8.31982 8.4751V10.395" stroke="#F2F4F3" stroke-width="0.959961" stroke-miterlimit="10" stroke-linecap="round" stroke-linejoin="round"/>
</svg>
