<svg width="16" height="16" viewBox="0 0 16 16" fill="none" xmlns="http://www.w3.org/2000/svg">
<path d="M11.5195 13.6338H5.11979C2.5599 13.6338 1.91992 12.9938 1.91992 10.4339V5.31413C1.91992 2.75423 2.5599 2.11426 5.11979 2.11426H11.5195C14.0794 2.11426 14.7194 2.75423 14.7194 5.31413V10.4339C14.7194 12.9938 14.0794 13.6338 11.5195 13.6338Z" stroke="#F2F4F3" stroke-width="0.959961" stroke-linecap="round" stroke-linejoin="round"/>
<path d="M9.59961 5.31396H12.7995" stroke="#F2F4F3" stroke-width="0.959961" stroke-linecap="round" stroke-linejoin="round"/>
<path d="M10.2397 7.87402H12.7996" stroke="#F2F4F3" stroke-width="0.959961" stroke-linecap="round" stroke-linejoin="round"/>
<path d="M11.5195 10.4341H12.7995" stroke="#F2F4F3" stroke-width="0.959961" stroke-linecap="round" stroke-linejoin="round"/>
<path d="M6.07974 7.41973C6.71948 7.41973 7.23809 6.90112 7.23809 6.26138C7.23809 5.62164 6.71948 5.10303 6.07974 5.10303C5.44 5.10303 4.92139 5.62164 4.92139 6.26138C4.92139 6.90112 5.44 7.41973 6.07974 7.41973Z" stroke="#F2F4F3" stroke-width="0.959961" stroke-linecap="round" stroke-linejoin="round"/>
<path d="M8.31966 10.6451C8.23006 9.71714 7.4941 8.98757 6.56613 8.90437C6.24615 8.87237 5.91976 8.87237 5.59337 8.90437C4.66541 8.99397 3.92944 9.71714 3.83984 10.6451" stroke="#F2F4F3" stroke-width="0.959961" stroke-linecap="round" stroke-linejoin="round"/>
</svg>
