<svg width="24" height="25" viewBox="0 0 24 25" fill="none" xmlns="http://www.w3.org/2000/svg">
<path d="M21 6.21837C19.9927 6.06599 18.9771 5.97457 17.9587 5.94462C17.406 5.36475 16.6781 4.98245 15.887 4.85651C15.0959 4.73056 14.2853 4.86793 13.5798 5.24751C12.8743 5.62708 12.3131 6.22784 11.9822 6.95744C11.6514 7.68705 11.5694 8.5051 11.7487 9.28587C8.71875 9.13212 6.42375 7.57587 4.27875 5.26212C3.98625 5.83212 3.43125 7.65087 3.8625 8.96337C4.37462 10.2607 5.25437 11.3802 6.39375 12.1846C5.29734 12.1345 4.21721 11.9 3.19875 11.4909C3.7275 13.2271 5.5425 15.7471 8.39625 16.1409C7.10733 17.1591 5.51259 17.7127 3.87 17.7121C3.57944 17.7155 3.28893 17.7017 3 17.6709C4.66488 18.7467 6.60525 19.3184 8.5875 19.3171C15.2887 19.3171 18.9562 13.7334 18.9562 8.88837V8.41212L21 6.21837Z" fill="#F2F4F3" stroke="#F2F4F3" stroke-width="0.75"/>
</svg>
